<svg xmlns="http://www.w3.org/2000/svg" version="1.1" width="210mm" height="297mm" viewBox="0 0 210 297" id="svg1" xml:space="preserve" inkscape:version="1.3.2 (091e20e, 2023-11-25, custom)" sodipodi:docname="LOGO MEP.svg" xmlns:inkscape="http://www.inkscape.org/namespaces/inkscape" xmlns:sodipodi="http://sodipodi.sourceforge.net/DTD/sodipodi-0.dtd" xmlns:svg="http://www.w3.org/2000/svg"><metadata><rdf:RDF xmlns:rdf="http://www.w3.org/1999/02/22-rdf-syntax-ns#" xmlns:dc="http://purl.org/dc/elements/1.1/"><rdf:Description><dc:creator>RealFaviconGenerator</dc:creator><dc:source>https://realfavicongenerator.net</dc:source></rdf:Description></rdf:RDF></metadata><sodipodi:namedview id="namedview1" pagecolor="#ffffff" bordercolor="#000000" borderopacity="0.25" inkscape:showpageshadow="2" inkscape:pageopacity="0.0" inkscape:pagecheckerboard="0" inkscape:deskcolor="#d1d1d1" inkscape:document-units="mm" inkscape:zoom="0.36213174" inkscape:cx="488.77241" inkscape:cy="650.31583" inkscape:window-width="1920" inkscape:window-height="1009" inkscape:window-x="-8" inkscape:window-y="-8" inkscape:window-maximized="1" inkscape:current-layer="g7"></sodipodi:namedview><defs id="defs1"></defs><g inkscape:label="Camada 1" inkscape:groupmode="layer" id="layer1"><g transform="matrix(0.03527778,0,0,-0.03527778,-74.680394,331.94446)" fill="#000000" stroke="none" id="g7"><path d="m 4763,8451 c -28,-16 -109,-65 -180,-109 -144,-89 -518,-317 -1069,-648 -204,-123 -392,-242 -418,-265 -26,-23 -56,-59 -67,-81 -47,-93 -49,-119 -49,-1008 0,-527 4,-858 10,-899 23,-140 48,-164 347,-341 l 168,-99 5,957 5,957 22,3 c 25,4 137,-51 468,-230 197,-107 243,-128 257,-119 10,6 102,61 204,122 224,133 267,159 262,164 -3,3 -420,244 -675,391 -56,33 -102,61 -103,64 0,8 931,568 952,573 9,2 307,-166 308,-173 0,-3 -155,-102 -345,-219 -190,-118 -344,-215 -342,-217 9,-9 469,-254 477,-254 6,0 70,38 143,83 72,46 188,117 257,157 294,173 840,518 840,530 -1,3 -157,90 -348,194 -191,105 -453,248 -582,319 -279,154 -335,177 -428,177 -55,0 -76,-6 -119,-29 z" id="path1" style="fill:#08085b;fill-opacity:1"></path><path d="m 6446,7588 c -16,-6 -128,-70 -250,-143 -121,-72 -349,-208 -506,-300 -581,-343 -700,-414 -915,-546 -121,-75 -235,-144 -252,-155 -18,-10 -33,-21 -33,-24 1,-3 114,-70 253,-149 l 251,-143 51,25 c 27,13 88,47 135,74 83,48 743,435 990,580 68,40 127,73 130,73 4,0 15,-6 26,-14 18,-14 19,-33 22,-541 2,-343 -1,-539 -8,-565 -6,-21 -27,-63 -47,-92 -20,-29 -43.7665,-60 -42.7665,-69 0,-8 -6.2335,-24 -23.2335,-33 l 29.4849,9.1828 8.6421,32.4721 c 17,14 -13.127,-8.6549 -18.127,-7.6549 -8,0 -400,-235 -584,-351 l -103,-64 v -323 c 0,-256 3,-322 13,-316 6,4 24,15 38,25 14,10 165,102 335,205 170,103 398,241 508,307 223,136 290,190 329,271 58,118 57,101 60,997 2,453 0,855 -5,892 -18,160 -120,281 -282,337 -66,22 -69,23 -110,8 z m 379,-353 2,-833 c 5.9778,33.3767 5.3108,308.7958 -2,833 z" id="path2" style="fill:#ff4b01;fill-opacity:1" sodipodi:nodetypes="cccccccccccscccscccccccscssccccccccc"></path><path d="m 3790,6354 c -6,-15 -10,-312 -10,-774 v -749 l 33,-24 c 49,-38 412,-237 430,-237 9,0 21,9 27,19 6,13 10,171 10,444 0,403 1,425 19,441 18,16 32,10 315,-148 163,-92 300,-166 305,-166 14,0 285,154 521,297 118,72 287,172 375,223 180,104 211,129 225,179 5,20 10,133 10,251 0,223 -7,267 -43,264 -9,-1 -101,-53 -204,-116 -556,-340 -822,-498 -837,-498 -21,0 -89,34 -224,112 -56,32 -187,105 -290,161 -103,57 -284,158 -403,225 -119,67 -224,122 -233,122 -9,0 -21,-12 -26,-26 z" id="path3" style="fill:#08085b;fill-opacity:1"></path><path d="m 4575,5047 c -4,-18 -5,-150 -3,-293 3,-232 5,-262 22,-290 38,-63 215,-156 306,-161 50,-3 66,3 169,55 164,82 155,57 159,420 2,160 1,292 -3,292 -9,0 -244,-129 -278,-152 l -27,-20 -156,91 c -85,50 -161,91 -169,91 -8,0 -17,-14 -20,-33 z" id="path4" style="fill:#08085b;fill-opacity:1"></path><path d="m 2357,3934 c -4,-4 -7,-459 -7,-1011 V 1920 h 225 225 l -2,610 c -2,336 -1,610 2,610 3,-1 70,-112 149,-248 328,-564 423,-722 431,-717 4,2 43,67 86,142 43,76 155,271 249,433 95,162 183,316 196,342 13,26 26,48 29,48 3,0 5,-273 5,-608 v -607 l 223,-3 222,-2 v 1010 1010 h -239 -240 l -44,-82 c -178,-332 -443,-835 -467,-885 -15,-33 -30,-43 -31,-20 0,6 -114,230 -253,497 l -252,485 -250,3 c -138,1 -253,-1 -257,-4 z" id="path5" style="fill:#08085b;fill-opacity:1"></path><path d="M 4750,2930 V 1920 l 630,2 631,3 v 200 200 l -408,2 c -224,1 -407,5 -405,8 1,3 2,91 2,196 v 191 l 365,-3 366,-4 v 200 200 l -371,3 -370,2 v 200 200 l 408,2 407,3 v 205 205 l -627,3 -628,2 z" id="path6" style="fill:#08085b;fill-opacity:1"></path><path d="M 6360,2931 V 1920 h 225 225 l 2,325 3,324 225,4 c 306,5 408,29 541,128 138,102 207,212 236,376 18,103 13,286 -11,373 -45,161 -148,300 -285,379 -165,97 -204,103 -723,108 l -438,5 z m 875,570 c 65,-29 89,-52 116,-114 52,-122 31,-266 -49,-344 -69,-65 -109,-76 -314,-81 l -178,-4 v 279 c 0,154 3,283 8,287 4,5 88,6 187,4 158,-4 186,-7 230,-27 z" id="path7" style="fill:#08085b;fill-opacity:1"></path></g></g></svg>