<svg xmlns="http://www.w3.org/2000/svg" viewBox="0 0 280 80" role="img" aria-label="MEP COLOR TINTAS">
  <defs>
    <style>@import url('https://fonts.googleapis.com/css2?family=Barlow+Condensed:wght@700;900&amp;display=swap');</style>
  </defs>

  <!-- Cube mark — same geometry as logo-mep.svg, cropped to symbol only -->
  <svg x="0" y="5" width="72" height="70" viewBox="7 30 186 138">
    <g transform="matrix(0.03527778,0,0,-0.03527778,-74.680394,331.94446)">
      <!-- Face esquerda/superior — branco -->
      <path d="m 4763,8451 c -28,-16 -109,-65 -180,-109 -144,-89 -518,-317 -1069,-648 -204,-123 -392,-242 -418,-265 -26,-23 -56,-59 -67,-81 -47,-93 -49,-119 -49,-1008 0,-527 4,-858 10,-899 23,-140 48,-164 347,-341 l 168,-99 5,957 5,957 22,3 c 25,4 137,-51 468,-230 197,-107 243,-128 257,-119 10,6 102,61 204,122 224,133 267,159 262,164 -3,3 -420,244 -675,391 -56,33 -102,61 -103,64 0,8 931,568 952,573 9,2 307,-166 308,-173 0,-3 -155,-102 -345,-219 -190,-118 -344,-215 -342,-217 9,-9 469,-254 477,-254 6,0 70,38 143,83 72,46 188,117 257,157 294,173 840,518 840,530 -1,3 -157,90 -348,194 -191,105 -453,248 -582,319 -279,154 -335,177 -428,177 -55,0 -76,-6 -119,-29 z" fill="#FFFFFF"/>
      <!-- Face direita — laranja -->
      <path d="m 6446,7588 c -16,-6 -128,-70 -250,-143 -121,-72 -349,-208 -506,-300 -581,-343 -700,-414 -915,-546 -121,-75 -235,-144 -252,-155 -18,-10 -33,-21 -33,-24 1,-3 114,-70 253,-149 l 251,-143 51,25 c 27,13 88,47 135,74 83,48 743,435 990,580 68,40 127,73 130,73 4,0 15,-6 26,-14 18,-14 19,-33 22,-541 2,-343 -1,-539 -8,-565 -6,-21 -27,-63 -47,-92 -20,-29 -44,-60 -43,-69 0,-8 -6,-24 -23,-33 l 29,9 9,32 c 17,14 -13,-9 -18,-8 -8,0 -400,-235 -584,-351 l -103,-64 v -323 c 0,-256 3,-322 13,-316 6,4 24,15 38,25 14,10 165,102 335,205 170,103 398,241 508,307 223,136 290,190 329,271 58,118 57,101 60,997 2,453 0,855 -5,892 -18,160 -120,281 -282,337 -66,22 -69,23 -110,8 z" fill="#F28C28"/>
      <!-- Face frontal/inferior — branco suave -->
      <path d="m 3790,6354 c -6,-15 -10,-312 -10,-774 v -749 l 33,-24 c 49,-38 412,-237 430,-237 9,0 21,9 27,19 6,13 10,171 10,444 0,403 1,425 19,441 18,16 32,10 315,-148 163,-92 300,-166 305,-166 14,0 285,154 521,297 118,72 287,172 375,223 180,104 211,129 225,179 5,20 10,133 10,251 0,223 -7,267 -43,264 -9,-1 -101,-53 -204,-116 -556,-340 -822,-498 -837,-498 -21,0 -89,34 -224,112 -56,32 -187,105 -290,161 -103,57 -284,158 -403,225 -119,67 -224,122 -233,122 -9,0 -21,-12 -26,-26 z" fill="#FFFFFF" fill-opacity="0.6"/>
      <!-- Base do cubo -->
      <path d="m 4575,5047 c -4,-18 -5,-150 -3,-293 3,-232 5,-262 22,-290 38,-63 215,-156 306,-161 50,-3 66,3 169,55 164,82 155,57 159,420 2,160 1,292 -3,292 -9,0 -244,-129 -278,-152 l -27,-20 -156,91 c -85,50 -161,91 -169,91 -8,0 -17,-14 -20,-33 z" fill="#FFFFFF" fill-opacity="0.35"/>
    </g>
  </svg>

  <!-- Separador vertical -->
  <line x1="80" y1="12" x2="80" y2="68" stroke="#FFFFFF" stroke-width="0.8" stroke-opacity="0.18"/>

  <!-- MEP — pequeno, branco, espacado -->
  <text
    x="92" y="26"
    font-family="'Barlow Condensed', 'Arial Black', Impact, Arial, sans-serif"
    font-weight="900"
    font-size="13"
    fill="#FFFFFF"
    fill-opacity="0.75"
    letter-spacing="6">MEP</text>

  <!-- COLOR — grande, laranja -->
  <text
    x="90" y="55"
    font-family="'Barlow Condensed', 'Arial Black', Impact, Arial, sans-serif"
    font-weight="900"
    font-size="33"
    fill="#F28C28"
    letter-spacing="-0.5">COLOR</text>

  <!-- TINTAS — micro, muted -->
  <text
    x="92" y="70"
    font-family="'Barlow Condensed', Arial, Helvetica, sans-serif"
    font-weight="700"
    font-size="9"
    fill="#FFFFFF"
    fill-opacity="0.32"
    letter-spacing="5.5">TINTAS</text>
</svg>
